<?xml version="1.0" standalone="no"?>
<!DOCTYPE svg PUBLIC "-//W3C//DTD SVG 20010904//EN"
 "http://www.w3.org/TR/2001/REC-SVG-20010904/DTD/svg10.dtd">
<svg version="1.0" xmlns="http://www.w3.org/2000/svg"
 width="1438.000000pt" height="387.000000pt" viewBox="0 0 1438.000000 387.000000"
 preserveAspectRatio="xMidYMid meet">

<g transform="translate(0.000000,387.000000) scale(0.100000,-0.100000)"
fill="#000000" stroke="none">
<path d="M6852 3318 c-19 -19 -14 -28 13 -28 27 0 28 1 19 24 -7 19 -16 20
-32 4z"/>
<path d="M6881 3257 c-13 -33 -13 -37 -3 -37 22 1 32 18 23 41 l-9 24 -11 -28z"/>
<path d="M6883 3185 c-37 -38 -35 -53 7 -79 38 -22 38 -36 1 -36 -33 0 -67
-36 -114 -120 l-28 -50 221 0 222 0 -32 40 c-46 59 -107 107 -153 123 -38 12
-42 17 -64 82 -12 37 -24 69 -25 71 -2 1 -18 -13 -35 -31z"/>
<path d="M7482 3137 c-30 -32 -28 -44 13 -84 39 -38 39 -37 29 55 -4 28 -10
52 -14 52 -3 0 -16 -10 -28 -23z"/>
<path d="M7252 1983 c13 -49 22 -58 38 -38 7 8 19 15 26 15 8 0 14 6 14 13 0
22 -34 47 -62 47 -26 0 -26 -1 -16 -37z"/>
<path d="M7382 1957 c-10 -25 -9 -34 2 -45 11 -11 18 -12 36 -2 12 6 28 9 36
6 32 -12 2 39 -34 58 -27 14 -29 14 -40 -17z"/>
<path d="M7530 1968 c0 -7 7 -22 15 -32 8 -11 15 -28 15 -39 0 -13 5 -17 16
-13 9 3 22 6 30 6 24 0 15 30 -18 61 -34 30 -58 38 -58 17z"/>
<path d="M7677 1903 c-2 -10 -8 -25 -11 -34 -10 -23 20 -32 50 -16 l25 13 -21
27 c-25 31 -36 34 -43 10z"/>
</g>
</svg>
